# xmcd
#
# Track frame offsets:
#	150
#	15908
#	35038
#	54379
#	74053
#	85630
#	111128
#	126183
#	144113
#	165019
#	180161
#	198948
#
# Disc length: 2959 seconds
# Revision: 0
# Processed by: cddbd v1.5.2PL0 Copyright (c) Steve Scherf et al.
# Submitted via: dBpowerAMP V12.0
#
DISCID=8c0b8d0c
DTITLE=Shane Pacey Trio - Watch Out!
DYEAR=2015
DGENRE=Blues
TTITLE0=I'm A Ram
TTITLE1=Watch Out!
TTITLE2=Key To The Highway
TTITLE3=The Grooms Still Waiting At The Alter
TTITLE4=Black Rose
TTITLE5=Cold Cold Feeling
TTITLE6=See See Baby
TTITLE7=Lonely Man
TTITLE8=Water On The Road
TTITLE9=She Moves Me
TTITLE10=Don't Burn Down The Bridge
TTITLE11=That Will Never Do
EXTD=
EXTT0=
EXTT1=
EXTT2=
EXTT3=
EXTT4=
EXTT5=
EXTT6=
EXTT7=
EXTT8=
EXTT9=
EXTT10=
EXTT11=
PLAYORDER=
